<?xml version="1.0" standalone="no"?>
<svg xmlns:xlink="http://www.w3.org/1999/xlink" id="wave" style="transform:rotate(0deg); transition: 0.3s" viewBox="0 0 1440 130" version="1.1" xmlns="http://www.w3.org/2000/svg"><defs><linearGradient id="sw-gradient-0" x1="0" x2="0" y1="1" y2="0"><stop stop-color="rgba(244, 231, 211, 1)" offset="0%"/><stop stop-color="rgba(193, 110, 74, 1)" offset="100%"/></linearGradient></defs><path style="transform:translate(0, 0px); opacity:1" fill="url(#sw-gradient-0)" d="M0,65L240,56.3C480,48,960,30,1440,32.5C1920,35,2400,56,2880,54.2C3360,52,3840,26,4320,17.3C4800,9,5280,17,5760,17.3C6240,17,6720,9,7200,4.3C7680,0,8160,0,8640,8.7C9120,17,9600,35,10080,34.7C10560,35,11040,17,11520,17.3C12000,17,12480,35,12960,49.8C13440,65,13920,78,14400,82.3C14880,87,15360,82,15840,69.3C16320,56,16800,35,17280,23.8C17760,13,18240,13,18720,26C19200,39,19680,65,20160,73.7C20640,82,21120,74,21600,71.5C22080,69,22560,74,23040,73.7C23520,74,24000,69,24480,73.7C24960,78,25440,91,25920,97.5C26400,104,26880,104,27360,97.5C27840,91,28320,78,28800,65C29280,52,29760,39,30240,39C30720,39,31200,52,31680,56.3C32160,61,32640,56,33120,62.8C33600,69,34080,87,34320,95.3L34560,104L34560,130L34320,130C34080,130,33600,130,33120,130C32640,130,32160,130,31680,130C31200,130,30720,130,30240,130C29760,130,29280,130,28800,130C28320,130,27840,130,27360,130C26880,130,26400,130,25920,130C25440,130,24960,130,24480,130C24000,130,23520,130,23040,130C22560,130,22080,130,21600,130C21120,130,20640,130,20160,130C19680,130,19200,130,18720,130C18240,130,17760,130,17280,130C16800,130,16320,130,15840,130C15360,130,14880,130,14400,130C13920,130,13440,130,12960,130C12480,130,12000,130,11520,130C11040,130,10560,130,10080,130C9600,130,9120,130,8640,130C8160,130,7680,130,7200,130C6720,130,6240,130,5760,130C5280,130,4800,130,4320,130C3840,130,3360,130,2880,130C2400,130,1920,130,1440,130C960,130,480,130,240,130L0,130Z"/></svg>